#!OML:ASF E:\emotionWalksFemale\Project 1\Capture day 1\Session 1\Female1.ASF
:FULLY-SPECIFIED
:DEGREES
2997
root 9.12549 15.4104 36.5731 5.1175 -9.55497 362.484
lowerback 6.20238 0.84712 1.42141
upperback -3.77385 1.24063 -0.405105
thorax -7.399 0.525149 -1.37796
lowerneck -2.86875 -5.75798 -12.5395
upperneck 3.49416 -8.24623 20.384
head 2.91785 -3.85268 8.06627
rclavicle -1.80801e-014 -2.38542e-015
rhumerus -43.7379 10.8671 -80.9085
rradius 59.2378
rwrist 7.16029
rhand -9.65591 -53.3459
rfingers 7.12502
rthumb -163.685 -622.68
lclavicle -1.80801e-014 -2.38542e-015
lhumerus -64.078 12.1078 60.7671
lradius 33.5534
lwrist -22.1836
lhand 6.88313 -26.8632
lfingers 7.12502
lthumb 32.1644 0.309607
rfemur -14.1843 9.37073 29.8763
rtibia 16.593
rfoot -31.9941 -49.6486
rtoes 52.6368
lfemur -19.0204 4.13944 -16.2358
ltibia 62.8134
lfoot -5.2054 -11.6655
ltoes -36.9268
2998
root 9.09654 15.4077 36.6036 5.13525 -10.3128 362.413
lowerback 6.23298 0.820674 1.43345
upperback -3.66887 1.21146 -0.32405
thorax -7.30694 0.514084 -1.29529
lowerneck -2.74772 -5.90977 -12.5317
upperneck 3.73968 -8.50918 20.4198
head 3.01379 -3.98165 8.06157
rclavicle -1.53313e-014 7.95139e-015
rhumerus -43.5421 10.8461 -80.9492
rradius 60.1366
rwrist 6.36454
rhand -9.6064 -54.2002
rfingers 7.12502
rthumb -163.637 -623.53
lclavicle -1.53313e-014 7.95139e-015
lhumerus -63.7359 12.0503 61.1942
lradius 33.6757
lwrist -22.2057
lhand 7.10718 -26.7354
lfingers 7.12502
lthumb 32.3777 0.394093
rfemur -14.0157 9.02271 30.1725
rtibia 16.5516
rfoot -30.3278 -49.2535
rtoes 51.7996
lfemur -19.8445 3.98035 -15.9106
ltibia 63.654
lfoot -6.1409 -11.6584
ltoes -38.9215
2999
root 9.0673 15.4038 36.6405 5.11018 -11.2332 362.524
lowerback 6.16137 0.86124 1.25361
upperback -3.57253 1.24838 -0.306414
thorax -7.16518 0.543541 -1.17764
lowerneck -2.35262 -6.21091 -13.1353
upperneck 3.79653 -8.98215 20.8667
head 3.09442 -4.23602 8.29475
rclavicle -1.94747e-014 -8.34896e-015
rhumerus -43.5824 10.8183 -81.0309
rradius 61.0496
rwrist 5.66533
rhand -9.00104 -54.6526
rfingers 7.12502
rthumb -163.055 -623.933
lclavicle -1.94747e-014 -8.34896e-015
lhumerus -63.3795 11.9765 61.5571
lradius 33.7608
lwrist -22.5827
lhand 7.21023 -27.0827
lfingers 7.12502
lthumb 32.4758 0.0266425
rfemur -13.6932 9.04129 30.2279
rtibia 16.3116
rfoot -30.0101 -48.5321
rtoes 51.9093
lfemur -20.4984 3.82154 -15.8202
ltibia 64.327
lfoot -7.12705 -11.3812
ltoes -39.6484
3000
root 9.03653 15.4031 36.6691 5.22836 -12.0283 362.572
lowerback 6.21444 0.790915 1.13165
upperback -3.61502 1.1439 -0.300633
thorax -7.24652 0.497219 -1.09193
lowerneck -2.13169 -6.42965 -13.2618
upperneck 4.01667 -9.34311 20.9171
head 3.19211 -4.42193 8.31337
rclavicle -2.25869e-014 0
rhumerus -43.7611 10.8609 -81.3245
rradius 61.6421
rwrist 4.96167
rhand -9.06105 -54.6166
rfingers 7.12502
rthumb -163.112 -623.902
lclavicle -2.25869e-014 0
lhumerus -63.0126 11.6553 62.1069
lradius 33.7187
lwrist -22.3859
lhand 7.14808 -27.1707
lfingers 7.12502
lthumb 32.4166 -0.0492367
rfemur -13.6696 9.11606 30.2983
rtibia 16.3073
rfoot -29.7447 -47.8371
rtoes 52.0496
lfemur -21.4091 3.49286 -15.6364
ltibia 64.8464
lfoot -7.74707 -10.9622
ltoes -40.3601
3001
root 9.00686 15.4052 36.703 5.01054 -13.0089 362.613
lowerback 6.38366 0.697757 0.98747
upperback -3.42036 1.00746 -0.284725
thorax -7.1429 0.43932 -0.978216
lowerneck -2.37161 -6.63892 -13.1271
upperneck 4.48469 -9.6777 20.7309
head 3.41156 -4.56284 8.19269
rclavicle -2.21272e-014 -1.59028e-015
rhumerus -43.6413 11.0561 -81.7022
rradius 62.1241
rwrist 4.39761
rhand -9.42614 -54.7153
rfingers 7.12502
rthumb -163.464 -624.031
lclavicle -2.21272e-014 -1.59028e-015
lhumerus -62.4931 11.3976 62.8236
lradius 33.7683
lwrist -21.8474
lhand 7.38893 -26.837
lfingers 7.12502
lthumb 32.6458 0.237239
rfemur -13.3043 8.97888 30.4371
rtibia 16.4218
rfoot -28.4543 -47.098
rtoes 51.3615
lfemur -21.8458 3.0773 -15.4336
ltibia 65.1908
lfoot -7.93006 -10.646
ltoes -38.0052
3002
root 8.97859 15.4079 36.7358 4.91394 -14.033 362.884
lowerback 6.49438 0.589252 0.627067
upperback -3.36967 0.825543 -0.328362
thorax -7.16116 0.365993 -0.800039
lowerneck -2.35048 -6.75909 -13.1979
upperneck 4.80234 -9.90037 20.7688
head 3.54467 -4.66639 8.20089
rclavicle -2.02885e-014 2.78299e-015
rhumerus -43.6226 11.4127 -82.1362
rradius 62.5632
rwrist 3.91058
rhand -9.96591 -54.8936
rfingers 7.12502
rthumb -163.984 -624.252
lclavicle -2.02885e-014 2.78299e-015
lhumerus -62.1258 11.131 63.4721
lradius 33.8086
lwrist -21.5656
lhand 7.30728 -26.7784
lfingers 7.12502
lthumb 32.5681 0.31197
rfemur -13.167 9.05353 30.3167
rtibia 16.6075
rfoot -26.4491 -46.8198
rtoes 49.6524
lfemur -22.4118 2.61898 -15.5342
ltibia 65.4393
lfoot -8.13263 -10.1818
ltoes -33.9242
3003
root 8.95477 15.4082 36.7651 4.93414 -15.1245 363.22
lowerback 6.59122 0.510957 0.172238
upperback -3.45238 0.675323 -0.350787
thorax -7.31286 0.312526 -0.551032
lowerneck -1.83565 -6.84977 -13.595
upperneck 4.75604 -10.0823 21.0558
head 3.51066 -4.78883 8.3703
rclavicle 3.95209e-014 1.63003e-014
rhumerus -43.77 11.8704 -82.5604
rradius 62.8657
rwrist 3.44214
rhand -10.4716 -54.8253
rfingers 7.12502
rthumb -164.471 -624.222
lclavicle 3.95209e-014 1.63003e-014
lhumerus -61.799 10.9197 64.0731
lradius 33.7489
lwrist -21.4693
lhand 7.09228 -26.7975
lfingers 7.12502
lthumb 32.3635 0.33484
rfemur -13.2799 9.33433 30.0896
rtibia 16.8974
rfoot -25.1495 -46.4992
rtoes 48.5553
lfemur -23.1372 2.2923 -15.741
ltibia 65.5921
lfoot -8.98232 -9.35934
ltoes -35.4907
3004
root 8.93331 15.4024 36.7972 4.97872 -16.2481 363.325
lowerback 6.684 0.416733 -0.0669878
upperback -3.53659 0.529431 -0.287201
thorax -7.46089 0.25387 -0.332696
lowerneck -1.2177 -6.97516 -14.1342
upperneck 4.63627 -10.3152 21.3791
head 3.4581 -4.94693 8.57747
rclavicle 2.21148e-014 1.63003e-014
rhumerus -44.1089 12.4841 -83.0373
rradius 63.2517
rwrist 2.85036
rhand -10.743 -53.8551
rfingers 7.12502
rthumb -164.732 -623.272
lclavicle 2.21148e-014 1.63003e-014
lhumerus -61.6388 11.0657 64.3489
lradius 33.9947
lwrist -21.7362
lhand 7.38144 -26.8813
lfingers 7.12502
lthumb 32.6387 0.194434
rfemur -13.336 9.75832 30.0688
rtibia 17.1426
rfoot -24.6316 -46.0624
rtoes 48.4436
lfemur -23.7983 2.0288 -15.7092
ltibia 65.6534
lfoot -10.2687 -8.15257
ltoes -41.6863
3005
root 8.91248 15.3967 36.8359 4.76954 -17.3961 363.457
lowerback 6.93133 0.311285 -0.16603
upperback -3.53675 0.374672 -0.324387
thorax -7.60581 0.181603 -0.297641
lowerneck -0.734273 -7.11894 -14.5998
upperneck 4.59727 -10.5776 21.6548
head 3.45342 -5.1102 8.74946
rclavicle 4.78326e-015 7.55382e-015
rhumerus -44.5438 13.1076 -83.6354
rradius 63.6847
rwrist 1.99892
rhand -12.4899 -51.9835
rfingers 7.12502
rthumb -166.415 -621.52
lclavicle 4.78326e-015 7.55382e-015
lhumerus -61.2942 10.4366 65.2167
lradius 34.0947
lwrist -21.0549
lhand 7.3526 -26.8529
lfingers 7.12502
lthumb 32.6113 0.228556
rfemur -12.9748 10.2214 30.0413
rtibia 17.1828
rfoot -23.4284 -45.8353
rtoes 47.5877
lfemur -24.0537 1.59769 -15.7686
ltibia 65.5678
lfoot -11.2622 -6.63042
ltoes -44.6238
3006
root 8.88823 15.3977 36.8779 4.38818 -18.5997 363.603
lowerback 6.79461 0.274707 -0.143187
upperback -3.14723 0.318136 -0.5045
thorax -7.10955 0.148922 -0.488868
lowerneck -0.592105 -7.33858 -14.7141
upperneck 4.3958 -10.8894 21.8784
head 3.45144 -5.27759 8.82376
rclavicle -2.00524e-014 -1.23246e-014
rhumerus -44.4344 13.3314 -84.133
rradius 63.9543
rwrist 1.5916
rhand -13.0503 -51.6663
rfingers 7.12502
rthumb -166.955 -621.238
lclavicle -2.00524e-014 -1.23246e-014
lhumerus -60.3197 9.90647 65.8965
lradius 34.1896
lwrist -20.8101
lhand 7.32694 -26.9252
lfingers 7.12502
lthumb 32.5868 0.161261
rfemur -12.3192 10.5572 30.0588
rtibia 17.0766
rfoot -22.1705 -45.4318
rtoes 46.4669
lfemur -24.0539 1.04426 -15.8425
ltibia 65.3452
lfoot -12.0777 -5.25852
ltoes -42.7167
